<?xml version="1.0" encoding="UTF-8" standalone="no"?>
<svg width="78px" height="78px" viewBox="0 0 78 78" version="1.1" xmlns="http://www.w3.org/2000/svg" xmlns:xlink="http://www.w3.org/1999/xlink">
    <!-- Generator: Sketch 43.2 (39069) - http://www.bohemiancoding.com/sketch -->
    <title>Analytics icon</title>
    <desc>Created with Sketch.</desc>
    <defs>
        <path d="M41.9194967,41.7273624 L41.9194967,40.1111949 C42.9881951,39.0178012 43.8311235,37.4928152 44.3297826,35.7074226 C45.5292112,34.8652193 45.8259605,33.1300256 44.8342564,31.9099583 L44.8342564,28.2919156 C44.8342564,24.5568077 42.7548058,22 38.000802,22 C33.369508,22 31.1647409,24.5568077 31.1647409,28.2919156 L31.1647409,31.9113309 C30.1746409,33.1302216 30.4721923,34.8640427 31.6692147,35.7068343 C32.1680744,37.4928152 33.0116043,39.0178012 34.0807037,40.1113909 L34.0807037,41.7275585 C33.6014937,43.2664669 27.8812501,45.7395445 22.7296423,47.7320073 C22.2905336,47.9024088 22,48.3296873 22,48.8071646 L22,52.8493483 C22,53.4840892 22.536084,53.7964355 23.133462,54 C23.133462,54 29.2563028,56 38,56 C46.7436972,56 52.8665379,54 52.8665379,54 C53.4721191,53.7560547 53.9999999,53.4840892 53.9999999,52.8493483 L53.9999999,48.8071646 C54.0002004,48.3294912 53.7094663,47.9010362 53.2705581,47.7318112 C48.1189503,45.740721 42.4001102,43.2682317 41.9194967,41.7273624 Z" id="path-1"></path>
    </defs>
    <g id="Style-Guide" stroke="none" stroke-width="1" fill="none" fill-rule="evenodd">
        <g id="Updates" transform="translate(-405.000000, -1248.000000)">
            <g id="Analytics-icon" transform="translate(406.000000, 1249.000000)">
                <circle id="Oval-2" stroke="#3B3B58" stroke-width="2" stroke-linecap="round" cx="38" cy="38" r="35"></circle>
                <circle id="Oval-2" stroke="#3CC7D7" stroke-width="2" stroke-linecap="round" cx="38" cy="38" r="30"></circle>
                <path d="M38,2.27373675e-13 L38,10" id="Line" stroke="#3B3B58" stroke-width="2" stroke-linecap="round"></path>
                <path d="M0,38 L10,38" id="Line" stroke="#3B3B58" stroke-width="2" stroke-linecap="round"></path>
                <path d="M66,38 L76,38" id="Line" stroke="#3B3B58" stroke-width="2" stroke-linecap="round"></path>
                <path d="M38,66 L38,76" id="Line" stroke="#3B3B58" stroke-width="2" stroke-linecap="round"></path>
                <path d="M32.747337,36.0789872 C33.6469084,35.4597201 33.8694704,34.1838423 33.1256923,33.286734 L33.1256923,30.6264085 C33.1256923,27.8800056 31.5661044,26 28.0006015,26 C24.527131,26 22.8735557,27.8800056 22.8735557,30.6264085 L22.8735557,33.2877433 C22.1309807,34.1839865 22.3541442,35.458855 23.2519111,36.0785546 C23.6260558,37.3917759 24.2587032,38.5130891 25.0605278,39.3171992 L25.0605278,40.5055577 C24.7011203,41.637108 20.4109376,43.4555474 16.5472318,44.9205936 C16.2179002,45.0458888 16,45.3600642 16,45.7111504 L16,48.6833443 C16,49.1500656 16.402063,49.379732 16.8500965,49.5294118 C16.8500965,49.5294118 21.4422271,51 28,51 C34.5577729,51 39.1499034,49.5294118 39.1499034,49.5294118 C39.6040894,49.3500402 39.9999999,49.1500656 39.9999999,48.6833443 L39.9999999,45.7111504 C40.0001503,45.35992 39.7820997,45.0448796 39.4529185,44.9204494 C35.5892127,43.4564125 32.3733426,37.3917759 32.747337,36.0789872 Z" id="Shape" stroke="#3B3B58" stroke-width="2" fill="#FFFFFF"></path>
                <path d="M50.9396225,40.5054135 L50.9396225,39.317055 C51.7411463,38.5130891 52.3733426,37.3917759 52.747337,36.0789872 C53.6469084,35.4597201 53.8694704,34.1838423 53.1256923,33.286734 L53.1256923,30.6264085 C53.1256923,27.8800056 51.5661044,26 48.0006015,26 C44.527131,26 42.8735557,27.8800056 42.8735557,30.6264085 L42.8735557,33.2877433 C42.1309807,34.1839865 42.3541442,35.458855 43.2519111,36.0785546 C43.6260558,37.3917759 40.4109376,43.4555474 36.5472318,44.9205936 C36.2179002,45.0458888 36,45.3600642 36,45.7111504 L36,48.6833443 C36,49.1500656 36.402063,49.379732 36.8500965,49.5294118 C36.8500965,49.5294118 41.4422271,51 48,51 C54.5577729,51 59.1499034,49.5294118 59.1499034,49.5294118 C59.6040894,49.3500402 59.9999999,49.1500656 59.9999999,48.6833443 L59.9999999,45.7111504 C60.0001503,45.35992 59.7820997,45.0448796 59.4529185,44.9204494 C55.5892127,43.4564125 51.3000827,41.6384057 50.9396225,40.5054135 Z" id="Shape" stroke="#3B3B58" stroke-width="2" fill="#FFFFFF"></path>
                <g id="Shape">
                    <use fill="#EB4859" fill-rule="evenodd" xlink:href="#path-1"></use>
                    <path stroke="#FFFFFF" stroke-width="2" d="M42.9194967,41.5177663 L42.9194967,40.5043902 C43.9156712,39.3830617 44.6981036,37.9368477 45.1999021,36.2946127 C46.5455551,35.1236553 46.8338255,33.1077079 45.8342564,31.5851995 L45.8342564,28.2919156 C45.8342564,23.7567331 43.0575282,21 38.000802,21 C33.0257476,21 30.1647409,23.8002143 30.1647409,28.2919156 L30.1647409,31.5867847 C29.1670115,33.1079034 29.4555752,35.1220841 30.7989211,36.2934258 C31.3008454,37.9361473 32.0837909,39.3828043 33.0807037,40.5046553 L33.0807037,41.5180921 C32.8208469,41.9020514 31.6031357,42.7252007 29.7125499,43.6640563 C27.8318423,44.5980065 25.3710562,45.6382121 22.3689172,46.7993351 C21.5423399,47.1200979 21,47.9188139 21,48.8071646 L21,52.8493483 C21,53.951002 21.7067093,54.5702808 22.8109118,54.9465523 C22.8794324,54.9690192 22.9821579,55.0010494 23.129441,55.0447057 C23.369605,55.1158929 23.6509093,55.194781 23.9716589,55.2794101 C24.8818953,55.5195741 25.9294023,55.7591152 27.1006411,55.9823212 C30.4391815,56.6185554 34.1083707,57 38,57 C41.8916293,57 45.5608184,56.6185554 48.8993589,55.9823212 C50.0705977,55.7591152 51.1181046,55.5195741 52.028341,55.2794101 C52.3490907,55.194781 52.6303949,55.1158929 52.8705589,55.0447057 C53.017842,55.0010494 53.1205675,54.9690192 53.1770386,54.9505732 C54.3909803,54.4639979 54.9999999,53.942491 54.9999999,52.8493483 L54.9999999,48.8071646 C55.0003731,47.9183558 54.4571046,47.1175413 53.630304,46.7987609 C50.6309899,45.6395293 48.1692336,44.5992458 46.2881814,43.6651125 C44.3975118,42.7262033 43.1798411,41.902848 42.9194967,41.5177663 Z"></path>
                </g>
            </g>
        </g>
    </g>
</svg>