<?xml version="1.0" encoding="UTF-8" standalone="no"?>
<svg width="114px" height="113px" viewBox="0 0 114 113" version="1.1" xmlns="http://www.w3.org/2000/svg" xmlns:xlink="http://www.w3.org/1999/xlink">
    <!-- Generator: Sketch 43.2 (39069) - http://www.bohemiancoding.com/sketch -->
    <title>Portfolio Icon</title>
    <desc>Created with Sketch.</desc>
    <defs>
        <filter x="-68.8%" y="-48.4%" width="235.9%" height="234.4%" filterUnits="objectBoundingBox" id="filter-1">
            <feOffset dx="0" dy="12" in="SourceAlpha" result="shadowOffsetOuter1"></feOffset>
            <feGaussianBlur stdDeviation="12" in="shadowOffsetOuter1" result="shadowBlurOuter1"></feGaussianBlur>
            <feColorMatrix values="0 0 0 0 0   0 0 0 0 0   0 0 0 0 0  0 0 0 0.121065444 0" type="matrix" in="shadowBlurOuter1" result="shadowMatrixOuter1"></feColorMatrix>
            <feMerge>
                <feMergeNode in="shadowMatrixOuter1"></feMergeNode>
                <feMergeNode in="SourceGraphic"></feMergeNode>
            </feMerge>
        </filter>
    </defs>
    <g id="Style-Guide" stroke="none" stroke-width="1" fill="none" fill-rule="evenodd">
        <g id="Updates" transform="translate(-183.000000, -767.000000)" stroke="#FFFFFF" stroke-width="2">
            <g id="2-Blocks-MOBILE" transform="translate(140.000000, 743.000000)">
                <g id="Portfolio-Icon" filter="url(#filter-1)" transform="translate(68.000000, 36.000000)">
                    <path d="M52,58.171862 L52,64 L-1.8189894e-12,64 L-1.8189894e-12,14.9992604 C-1.8189894e-12,13.8950994 0.897674553,13 1.99203905,13 L6.08372485,13" id="Rectangle-2" fill="#EB4859"></path>
                    <path d="M58,52.171862 L58,58 L6,58 L6,8.99926044 C6,7.89509939 6.89767455,7 7.99203905,7 L12.0837248,7" id="Rectangle-2" fill="#EB4859"></path>
                    <path d="M64,5 L64,52 L12,52 L12,2.00659927 C12,0.898385094 12.8990199,0 14.0022039,0 L20.9836671,0 C22.0894538,0 23.5420539,0.695228577 24.2295696,1.55462325 L25.7421724,3.44537675 C26.4290482,4.30397146 27.8824919,5 28.9759114,5 L64,5 Z" id="Rectangle-2" fill="#EB4859"></path>
                    <path d="M52,32 L24,32" id="Line" stroke-linecap="round"></path>
                    <path d="M52,38 L24,38" id="Line" stroke-linecap="round"></path>
                    <rect id="Rectangle-3" x="24" y="19" width="28" height="7"></rect>
                </g>
            </g>
        </g>
    </g>
</svg>