<?xml version="1.0" encoding="UTF-8" standalone="no"?>
<svg width="114px" height="109px" viewBox="0 0 114 109" version="1.1" xmlns="http://www.w3.org/2000/svg" xmlns:xlink="http://www.w3.org/1999/xlink">
    <!-- Generator: Sketch 43.2 (39069) - http://www.bohemiancoding.com/sketch -->
    <title>Results Icon</title>
    <desc>Created with Sketch.</desc>
    <defs>
        <filter x="-67.2%" y="-48.4%" width="234.4%" height="234.4%" filterUnits="objectBoundingBox" id="filter-1">
            <feOffset dx="0" dy="12" in="SourceAlpha" result="shadowOffsetOuter1"></feOffset>
            <feGaussianBlur stdDeviation="12" in="shadowOffsetOuter1" result="shadowBlurOuter1"></feGaussianBlur>
            <feColorMatrix values="0 0 0 0 0   0 0 0 0 0   0 0 0 0 0  0 0 0 0.12463202 0" type="matrix" in="shadowBlurOuter1" result="shadowMatrixOuter1"></feColorMatrix>
            <feMerge>
                <feMergeNode in="shadowMatrixOuter1"></feMergeNode>
                <feMergeNode in="SourceGraphic"></feMergeNode>
            </feMerge>
        </filter>
    </defs>
    <g id="Style-Guide" stroke="none" stroke-width="1" fill="none" fill-rule="evenodd">
        <g id="Updates" transform="translate(-383.000000, -770.000000)" stroke="#FFFFFF" stroke-width="2">
            <g id="2-Blocks-MOBILE" transform="translate(140.000000, 743.000000)">
                <g id="Results-Icon" filter="url(#filter-1)" transform="translate(268.000000, 36.000000)">
                    <path d="M0,4 L64,4 L64,49.9986107 C64,51.1039475 63.0952759,52 61.9967014,52 L2.00329863,52 C0.896907345,52 0,51.1050616 0,49.9986107 L0,4 Z" id="Rectangle-2" fill="#3CC7D7"></path>
                    <circle id="Oval" cx="22" cy="28" r="12"></circle>
                    <path d="M32,53 L32,62" id="Line" stroke-linecap="round"></path>
                    <path d="M32,0 L32,4" id="Line" stroke-linecap="round"></path>
                    <path d="M42,63 L22,63" id="Line" stroke-linecap="round"></path>
                    <path d="M56,18 L40,18" id="Line" stroke-linecap="round"></path>
                    <path d="M31,20 L22,28" id="Line" stroke-linecap="round"></path>
                    <path d="M31.3066249,35.4206515 L21.8434344,29.5254289 C21.3776184,29.2352425 21,28.547895 21,28.0032203 L21,16.2970433" id="Line" stroke-linecap="round"></path>
                    <path d="M56,25 L40,25" id="Line" stroke-linecap="round"></path>
                    <path d="M56,32 L40,32" id="Line" stroke-linecap="round"></path>
                    <path d="M56,39 L40,39" id="Line" stroke-linecap="round"></path>
                </g>
            </g>
        </g>
    </g>
</svg>